<?xml version="1.0" standalone="no"?>
<!DOCTYPE svg PUBLIC "-//W3C//DTD SVG 20010904//EN"
 "http://www.w3.org/TR/2001/REC-SVG-20010904/DTD/svg10.dtd">
<svg version="1.0" xmlns="http://www.w3.org/2000/svg"
 width="1024.000000pt" height="1024.000000pt" viewBox="0 0 1024.000000 1024.000000"
 preserveAspectRatio="xMidYMid meet">

<g transform="translate(0.000000,1024.000000) scale(0.100000,-0.100000)"
fill="#000000" stroke="none">
<path d="M5005 7500 c-65 -25 -120 -72 -145 -121 -22 -42 -20 -41 -150 -58
-268 -35 -532 -136 -822 -317 l-122 -75 -48 22 c-120 56 -291 0 -349 -113 -31
-61 -36 -159 -12 -222 l18 -49 -33 -36 c-83 -90 -216 -302 -299 -479 -86 -182
-170 -456 -185 -606 -3 -30 -7 -33 -75 -61 -116 -48 -179 -201 -139 -339 20
-69 82 -140 150 -175 26 -12 46 -28 46 -34 1 -41 32 -239 50 -313 68 -291 220
-587 437 -853 l69 -83 -28 -55 c-56 -110 -29 -236 67 -321 49 -43 121 -72 180
-72 47 0 121 25 168 56 l41 27 41 -23 c168 -94 334 -166 485 -211 36 -11 85
-26 110 -34 55 -17 234 -50 355 -65 130 -16 428 -13 575 6 573 73 1076 352
1440 799 61 75 146 199 174 253 16 31 18 32 69 26 189 -22 351 183 292 370
-19 59 -80 140 -114 151 -19 6 -18 8 5 65 91 225 106 587 38 930 -37 188 -115
435 -170 542 -14 27 -13 34 12 96 31 78 30 158 -3 233 -41 93 -152 169 -248
169 -49 0 -52 2 -140 86 -128 122 -276 245 -379 316 -273 187 -579 315 -896
375 -90 17 -92 18 -111 55 -65 128 -224 190 -354 138z m-169 -350 l14 -45 -38
-34 c-20 -19 -153 -142 -294 -273 -305 -284 -331 -307 -339 -308 -3 0 -41 17
-85 38 -43 22 -106 51 -139 66 l-60 26 0 73 c0 49 -6 83 -17 106 -10 19 -18
35 -18 37 0 1 61 39 135 83 206 123 368 192 580 245 120 30 146 34 204 32 43
-1 44 -2 57 -46z m738 1 c290 -73 557 -204 817 -398 99 -75 292 -239 297 -254
2 -5 9 -9 15 -9 7 0 19 -5 27 -10 13 -9 13 -11 0 -21 -12 -9 -12 -10 4 -5 13
5 17 2 12 -9 -7 -19 4 -19 33 1 22 16 22 16 9 -5 -7 -11 -18 -21 -25 -21 -7 0
-13 -5 -13 -12 0 -6 -7 -3 -15 8 -14 18 -14 18 -15 -7 0 -15 -8 -33 -17 -40
-15 -11 -16 -11 -5 1 18 21 15 30 -13 30 -16 0 -25 -6 -25 -15 0 -29 -29 -75
-44 -69 -8 3 -17 1 -21 -5 -3 -6 -10 -11 -15 -11 -17 0 53 111 92 145 23 19
37 35 31 35 -12 0 -113 -105 -113 -117 0 -4 -4 -14 -9 -22 -7 -12 -50 16 -203
131 -106 80 -276 203 -378 273 -102 71 -246 172 -320 225 -74 53 -157 112
-185 130 -53 36 -76 60 -69 72 8 12 24 10 148 -21z m96 -326 c211 -145 845
-605 874 -635 19 -18 18 -19 -20 -35 -39 -17 -184 -69 -469 -169 l-150 -52
-38 37 c-46 45 -111 69 -188 69 -51 0 -58 3 -65 23 -22 73 -281 773 -334 902
-6 16 0 28 27 57 l35 36 122 -87 c66 -48 159 -113 206 -146z m-576 116 l59 3
44 -115 c61 -155 249 -666 281 -762 l26 -77 -36 -36 -36 -37 -133 63 c-74 35
-168 77 -209 95 -71 31 -156 70 -585 265 -99 45 -183 85 -187 88 -4 4 61 70
144 147 84 77 220 204 304 281 l152 142 59 -30 c48 -24 69 -29 117 -27z m1718
-417 c3 -3 35 -6 69 -8 108 -4 201 -69 246 -173 25 -59 22 -158 -7 -218 -13
-27 -23 -54 -22 -59 4 -13 -27 -34 -93 -65 -69 -32 -142 -51 -111 -28 11 8 16
21 14 33 -4 17 -6 16 -16 -6 -6 -14 -11 -19 -11 -12 -1 7 -7 10 -13 7 -7 -4
-2 3 12 14 20 16 27 18 35 8 15 -19 62 -19 99 1 41 22 73 52 55 52 -7 0 -5 8
6 20 20 22 30 54 14 44 -5 -3 -7 -10 -4 -15 10 -14 -13 -11 -27 5 -11 12 -16
11 -34 -5 -20 -19 -22 -19 -35 -2 -12 16 -12 17 1 6 13 -10 18 -8 27 7 10 15
9 21 -4 32 -15 11 -16 11 -10 -5 4 -11 3 -16 -3 -12 -12 7 -14 46 -2 44 17 -3
23 2 15 14 -8 12 -10 18 -12 40 0 7 -15 14 -33 15 -39 3 -45 9 -30 24 8 8 12
8 12 1 0 -6 9 -13 20 -16 11 -3 20 -3 20 -1 0 2 -9 13 -20 24 -24 24 -28 49
-5 30 8 -7 12 -16 9 -21 -3 -5 0 -9 6 -9 6 0 15 10 20 23 5 14 9 16 9 6 1 -9
8 -16 16 -16 13 0 13 3 1 22 -12 19 -12 23 2 31 14 9 14 13 -1 34 -9 14 -17
18 -17 11 0 -10 -4 -10 -12 -3 -7 6 -26 12 -43 14 -16 1 -30 9 -30 16 0 7 -6
17 -14 21 -7 5 -11 13 -8 18 3 5 -8 10 -25 11 -28 2 -30 1 -17 -15 7 -10 9
-15 5 -11 -5 4 -16 2 -25 -5 -14 -10 -14 -10 -3 5 16 20 1 32 -27 23 -15 -5
-18 -1 -13 20 l5 26 -38 -15 c-44 -19 -45 -19 -45 -7 0 14 81 37 92 25z
m-2852 -70 c66 -32 120 -60 120 -65 0 -4 -12 -17 -27 -29 -37 -29 -234 -210
-355 -326 -83 -80 -97 -90 -92 -66 3 15 11 63 18 107 7 44 24 139 36 210 l22
130 58 29 c32 15 66 36 76 47 9 10 19 19 20 19 2 0 58 -25 124 -56z m-405 -73
c-3 -25 -13 -77 -20 -116 -8 -38 -30 -162 -50 -275 -30 -171 -39 -208 -58
-226 -12 -11 -85 -77 -161 -145 -287 -256 -276 -249 -276 -176 0 50 38 212 76
323 71 205 199 448 329 623 l67 89 50 -26 50 -26 -7 -45z m3220 89 c3 -5 -1
-10 -9 -10 -9 0 -16 5 -16 10 0 6 4 10 9 10 6 0 13 -4 16 -10z m135 -30 c12
-8 12 -10 -3 -16 -12 -4 -16 -13 -11 -28 l6 -21 -23 22 c-19 18 -20 24 -9 37
14 18 20 19 40 6z m69 -43 c-2 -1 -14 -10 -26 -20 -21 -18 -21 -18 -18 0 2 10
4 19 4 21 1 1 11 2 23 2 12 0 19 -1 17 -3z m-195 -23 c3 -8 2 -12 -4 -9 -6 3
-10 10 -10 16 0 14 7 11 14 -7z m242 -1 c-9 -9 -57 -12 -51 -4 2 4 16 8 31 9
15 1 24 -1 20 -5z m-113 -10 c-7 -2 -19 -2 -25 0 -7 3 -2 5 12 5 14 0 19 -2
13 -5z m18 -26 c-6 -8 -7 -18 -3 -23 4 -4 -2 -2 -13 6 -30 21 -32 24 -13 17
10 -3 20 -2 23 3 4 6 9 10 12 10 3 0 0 -6 -6 -13z m-131 -19 c0 -6 -6 -5 -15
2 -8 7 -15 14 -15 16 0 2 7 1 15 -2 8 -4 15 -11 15 -16z m-2521 -13 c27 -13
129 -60 227 -104 168 -75 261 -117 697 -321 97 -45 177 -86 177 -91 0 -16 -54
-36 -275 -104 -368 -113 -498 -152 -815 -251 -168 -52 -399 -124 -515 -160
-115 -36 -230 -72 -254 -80 -25 -8 -46 -12 -48 -11 -4 4 40 308 63 442 13 70
22 97 43 119 73 80 623 586 636 586 9 0 38 -11 64 -25z m2620 0 c5 2 15 -3 22
-12 12 -14 12 -16 -2 -11 -9 4 -22 1 -28 -5 -9 -9 -11 -8 -6 4 4 10 2 20 -4
24 -6 3 -11 12 -11 18 0 7 5 4 11 -6 6 -9 14 -15 18 -12z m-219 -17 c0 -6 -6
-5 -15 2 -8 7 -15 14 -15 16 0 2 7 1 15 -2 8 -4 15 -11 15 -16z m170 13 c0 -5
3 -18 6 -28 3 -10 0 -8 -9 6 l-14 24 -16 -23 c-13 -19 -19 -21 -31 -10 -20 16
-10 33 14 25 10 -3 21 -1 25 5 8 12 25 13 25 1z m-115 -31 c3 -5 1 -10 -4 -10
-6 0 -11 5 -11 10 0 6 2 10 4 10 3 0 8 -4 11 -10z m205 -28 c14 9 22 9 34 -1
22 -18 20 -36 -6 -55 -16 -12 -18 -16 -5 -12 17 5 24 -8 9 -18 -12 -7 -45 22
-37 33 13 22 -6 33 -30 17 -20 -13 -24 -13 -29 -1 -3 8 0 17 6 21 7 4 8 3 4
-4 -8 -13 -4 -15 18 -6 8 3 12 12 9 20 -3 8 -9 11 -14 8 -5 -3 -9 -1 -9 5 0
18 25 18 28 0 3 -15 6 -16 22 -7z m-140 -4 c0 -6 -6 -5 -15 2 -8 7 -15 14 -15
16 0 2 7 1 15 -2 8 -4 15 -11 15 -16z m-223 -55 c-3 -10 -5 -2 -5 17 0 19 2
27 5 18 2 -10 2 -26 0 -35z m186 30 c-7 -2 -13 -12 -13 -21 0 -15 -2 -15 -10
-2 -9 15 4 30 25 29 6 0 4 -3 -2 -6z m34 -39 c0 -7 -6 -10 -14 -7 -7 3 -13 8
-13 12 0 4 6 8 13 8 8 0 14 -6 14 -13z m113 1 c-7 -9 -15 -13 -19 -10 -3 3 1
10 9 15 21 14 24 12 10 -5z m4 -43 c3 -5 -1 -9 -9 -9 -8 0 -12 4 -9 9 3 4 7 8
9 8 2 0 6 -4 9 -8z m31 -11 c3 -5 2 -12 -3 -15 -5 -3 -9 1 -9 9 0 17 3 19 12
6z m111 -46 c-6 -13 -13 -20 -14 -15 -2 6 -8 8 -13 4 -13 -8 -11 10 4 25 10
11 9 12 -3 6 -13 -8 -13 -7 -1 8 21 26 43 4 27 -28z m-41 -11 c0 -32 -11 -30
-23 5 -9 25 -8 28 6 24 10 -2 17 -14 17 -29z m-364 -30 c13 -14 41 -35 62 -45
30 -16 36 -24 33 -42 -13 -61 -50 -260 -96 -512 -28 -154 -59 -325 -70 -380
-10 -55 -20 -113 -22 -128 -3 -26 -20 -11 -208 195 -112 122 -256 276 -320
341 -63 65 -117 122 -118 128 -2 5 0 15 6 22 19 24 34 89 33 150 l0 62 92 28
c108 34 535 185 557 198 22 12 24 12 51 -17z m34 -4 c10 -11 16 -20 13 -20 -3
0 -13 9 -23 20 -10 11 -16 20 -13 20 3 0 13 -9 23 -20z m275 -8 c0 -5 -7 -9
-15 -9 -8 0 -15 4 -15 9 0 4 7 8 15 8 8 0 15 -4 15 -8z m-203 -28 c-3 -3 -12
-4 -19 -1 -8 3 -5 6 6 6 11 1 17 -2 13 -5z m295 -131 c171 -440 202 -987 73
-1295 -5 -12 -3 -18 6 -18 8 -1 28 -7 44 -15 l30 -14 -30 6 c-16 3 -42 13 -57
21 -22 13 -35 13 -84 3 -65 -13 -86 -26 -55 -34 12 -3 19 -2 16 3 -5 8 17 20
36 20 5 0 9 -10 9 -21 0 -18 -2 -19 -15 -9 -13 11 -14 10 -10 -2 5 -12 0 -14
-21 -10 -19 3 -25 1 -20 -7 4 -6 1 -11 -8 -11 -9 0 -16 5 -16 11 0 5 -66 74
-146 152 l-146 141 6 52 c3 28 21 129 40 225 19 96 60 311 91 479 82 446 72
405 99 408 13 1 41 8 62 16 21 7 41 14 44 15 3 0 27 -52 52 -116z m-192 97 c0
-5 -5 -10 -11 -10 -5 0 -7 5 -4 10 3 6 8 10 11 10 2 0 4 -4 4 -10z m-1433
-353 c13 -17 30 -42 39 -54 14 -20 14 -24 -9 -60 -13 -21 -129 -245 -257 -498
-128 -253 -250 -491 -270 -530 l-37 -70 -64 -6 c-61 -5 -130 -30 -174 -63 -19
-14 -28 -10 -130 56 -61 39 -283 181 -495 315 -212 135 -415 265 -451 289 -37
24 -74 47 -83 50 -25 10 -10 21 52 39 111 31 268 77 342 100 41 13 134 42 205
64 263 81 1044 324 1160 361 66 21 127 38 135 39 8 0 25 -14 37 -32z m-2021
-39 c-3 -13 -17 -104 -31 -203 -14 -99 -28 -190 -31 -202 -3 -17 -17 -26 -62
-39 -31 -9 -63 -19 -69 -21 -9 -4 -13 6 -13 29 0 48 -26 130 -51 162 -11 14
-19 30 -17 35 2 4 59 59 128 122 69 62 129 119 133 126 13 20 20 15 13 -9z
m2457 -105 c23 -26 74 -81 113 -123 39 -41 99 -106 134 -145 35 -38 94 -101
130 -140 37 -38 115 -123 174 -187 l107 -118 -22 -62 c-12 -35 -27 -68 -33
-75 -10 -11 -178 -60 -521 -152 -82 -22 -235 -63 -340 -91 -104 -28 -246 -66
-315 -85 -185 -52 -183 -51 -200 -20 -8 15 -28 38 -44 52 l-30 25 167 332 c92
182 220 435 285 561 l118 230 79 6 c44 3 94 13 110 22 17 9 34 16 38 17 5 0
28 -21 50 -47z m-2529 -545 c4 -51 9 -111 12 -133 4 -25 3 -36 -3 -30 -39 41
-175 206 -172 209 6 5 132 44 145 45 8 1 14 -31 18 -91z m243 -76 c158 -106
433 -282 698 -448 334 -208 301 -182 285 -228 -18 -57 -7 -145 26 -206 22 -41
80 -96 131 -125 2 -1 -11 -120 -27 -264 -17 -144 -30 -287 -30 -316 0 -30 -4
-56 -9 -59 -5 -3 -74 76 -155 177 -234 292 -583 711 -815 981 -80 93 -154 179
-164 192 -22 28 -46 148 -54 273 -7 111 -15 110 114 23z m-451 -19 c27 -32 93
-106 146 -166 68 -76 99 -118 102 -140 3 -18 15 -104 26 -192 12 -88 34 -253
51 -367 16 -114 29 -217 29 -229 0 -22 0 -22 -21 -3 -34 30 -141 171 -202 264
-103 159 -187 353 -237 543 -29 108 -56 284 -48 308 4 11 63 35 94 38 6 1 33
-25 60 -56z m3588 -260 c42 -40 71 -73 65 -73 -9 0 -162 74 -178 86 -7 6 21
65 29 62 4 -2 42 -36 84 -75z m226 -57 c0 -3 -4 -8 -10 -11 -5 -3 -10 -1 -10
4 0 6 5 11 10 11 6 0 10 -2 10 -4z m348 -55 c52 -50 87 -151 76 -214 -8 -41
-8 -41 -14 -12 -4 17 -5 46 -4 65 2 19 1 26 -2 15 -7 -21 -22 -35 -39 -35 -5
1 -2 7 8 14 9 7 16 22 16 32 -1 17 -2 17 -6 2 -2 -10 -12 -18 -21 -18 -14 0
-15 2 -2 10 8 5 11 12 7 16 -3 4 -13 1 -22 -6 -10 -8 -15 -9 -15 -1 0 6 5 11
11 11 6 0 8 9 4 20 -4 12 -2 20 5 20 6 0 9 4 6 9 -4 5 0 12 6 15 7 3 4 4 -8 1
-23 -6 -46 15 -42 36 2 8 -3 13 -9 12 -8 -2 -12 7 -11 22 1 14 5 25 9 25 4 0
25 -17 47 -39z m-405 -4 c-16 -18 -35 -49 -42 -68 -7 -18 -18 -44 -23 -56 -14
-29 -13 -97 1 -148 10 -40 67 -125 83 -125 18 0 4 -28 -68 -134 -146 -212
-287 -358 -494 -510 -104 -77 -297 -193 -305 -184 -6 5 153 390 278 678 205
470 239 545 245 552 4 4 62 -19 129 -52 125 -62 134 -65 131 -52 -4 20 67 132
85 132 5 0 -4 -15 -20 -33z m-470 -14 c-4 -9 -17 -38 -30 -65 -65 -135 -354
-809 -420 -982 -19 -50 -39 -96 -45 -103 -6 -8 -69 39 -222 165 -117 97 -300
247 -408 332 l-195 155 20 39 c11 21 23 62 25 91 l4 52 217 57 c231 61 843
226 951 256 86 24 111 25 103 3z m841 -61 c3 -5 -1 -9 -9 -9 -8 0 -12 4 -9 9
3 4 7 8 9 8 2 0 6 -4 9 -8z m-3443 -361 c233 -279 666 -805 748 -910 l35 -43
-44 7 c-121 20 -368 115 -529 203 l-125 67 -1 75 c-2 80 -19 128 -70 188 -32
38 -118 81 -171 86 l-39 4 -12 68 c-10 58 -62 422 -80 559 -5 40 -5 40 15 20
10 -11 134 -157 273 -324z m3031 276 c-13 -16 -10 -40 7 -61 10 -11 10 -16 2
-16 -7 0 -10 -4 -6 -9 3 -6 14 -8 25 -6 16 3 20 -2 21 -28 0 -18 2 -40 4 -49
2 -9 -3 -19 -11 -22 -15 -6 -49 48 -39 63 3 5 0 11 -6 13 -18 6 -24 115 -8
134 9 11 15 12 17 5 2 -7 -1 -17 -6 -24z m30 8 c-2 -14 -8 -23 -12 -20 -10 6
-1 45 10 45 4 0 5 -11 2 -25z m382 -1 c3 -8 2 -12 -4 -9 -6 3 -10 10 -10 16 0
14 7 11 14 -7z m6 -45 c5 9 10 8 19 -2 9 -12 7 -15 -12 -19 -18 -3 -23 0 -24
16 -1 12 1 15 4 7 4 -10 7 -10 13 -2z m-380 -24 c0 -8 -2 -15 -4 -15 -2 0 -6
7 -10 15 -3 8 -1 15 4 15 6 0 10 -7 10 -15z m67 -11 c15 5 15 4 -1 -9 -13 -10
-15 -15 -6 -15 7 0 10 -3 7 -7 -8 -7 -47 26 -47 40 0 5 7 4 15 -3 8 -7 23 -9
32 -6z m320 -6 c-1 -40 4 -50 21 -43 12 4 14 3 6 -5 -10 -10 -29 -16 -56 -19
-5 -1 -7 -7 -5 -13 1 -8 -8 -13 -20 -12 -13 0 -23 -5 -23 -12 0 -8 8 -10 23
-6 19 5 20 4 7 -9 -8 -8 -22 -18 -31 -21 -14 -6 -15 -1 -9 27 4 19 5 37 1 42
-3 4 1 2 9 -4 12 -9 20 -7 38 7 23 19 31 37 10 24 -7 -4 -8 -3 -4 5 4 6 12 9
17 6 5 -4 9 -1 9 5 0 6 -8 14 -17 17 -15 6 -15 7 3 14 10 4 20 8 20 8 1 1 2
-5 1 -11z m-50 -20 c-3 -8 -6 -5 -6 6 -1 11 2 17 5 13 3 -3 4 -12 1 -19z m88
13 c3 -5 2 -12 -3 -15 -5 -3 -9 1 -9 9 0 17 3 19 12 6z m34 -53 c-17 -41 -74
-105 -110 -124 -36 -18 -40 -18 -32 4 5 14 3 15 -8 5 -7 -7 -17 -13 -22 -13
-4 0 7 14 25 30 18 17 36 30 40 30 5 0 8 7 8 15 0 14 12 19 33 16 4 0 7 7 7
16 0 9 3 14 6 11 9 -10 55 43 48 55 -5 9 -4 9 6 0 11 -10 10 -18 -1 -45z
m-379 12 c0 -5 -2 -10 -4 -10 -3 0 -8 5 -11 10 -3 6 -1 10 4 10 6 0 11 -4 11
-10z m-10 -40 c0 -11 -4 -20 -9 -20 -5 0 -7 9 -4 20 3 11 7 20 9 20 2 0 4 -9
4 -20z m104 11 c3 -5 -1 -14 -8 -20 -12 -10 -13 -8 -9 8 6 23 9 25 17 12z m41
-12 c-4 -5 -1 -9 6 -9 7 0 9 -3 6 -6 -9 -9 -38 16 -31 27 3 5 10 7 15 3 5 -3
7 -10 4 -15z m-84 -22 c-10 -9 -11 -8 -5 6 3 10 9 15 12 12 3 -3 0 -11 -7 -18z
m-48 -31 c5 -13 -41 -15 -62 -2 -10 6 -10 10 -1 16 15 10 58 1 63 -14z m164
12 c-2 -55 4 -78 21 -80 9 0 -3 -4 -28 -7 -25 -4 -53 -5 -62 -3 -29 7 -20 22
12 22 17 0 30 5 30 11 0 5 4 8 8 5 5 -3 9 1 9 8 0 8 -6 12 -12 10 -7 -3 -17 2
-24 10 -11 13 -10 15 7 11 11 -2 23 3 26 11 7 17 14 18 13 2z m33 -28 c0 -5
-2 -10 -4 -10 -3 0 -8 5 -11 10 -3 6 -1 10 4 10 6 0 11 -4 11 -10z m-103 -15
c0 -8 -4 -15 -9 -15 -4 0 -8 7 -8 15 0 8 4 15 8 15 5 0 9 -7 9 -15z m-2002
-226 c28 -23 190 -154 360 -292 412 -333 445 -361 437 -369 -13 -13 -240 -77
-343 -97 -187 -35 -302 -44 -514 -38 -110 3 -208 8 -218 12 -21 9 -23 -27 24
440 17 165 32 310 35 323 4 18 11 22 42 22 20 0 55 9 77 19 22 11 42 20 45 20
3 1 28 -18 55 -40z"/>
<path d="M6635 6390 c-3 -5 -1 -10 4 -10 6 0 11 5 11 10 0 6 -2 10 -4 10 -3 0
-8 -4 -11 -10z"/>
<path d="M6930 6456 c7 -7 13 -7 20 0 6 6 3 10 -10 10 -13 0 -16 -4 -10 -10z"/>
<path d="M7003 6448 c0 -13 1 -17 4 -10 3 6 10 9 16 5 7 -4 6 1 -2 10 -17 21
-17 21 -18 -5z"/>
<path d="M6973 6442 c1 -14 5 -18 11 -12 7 7 6 14 -1 21 -9 9 -12 7 -10 -9z"/>
<path d="M7055 6371 c3 -6 -2 -14 -11 -19 -18 -10 -11 -32 9 -32 8 0 8 3 -1 9
-10 6 -10 10 3 21 17 14 20 30 4 30 -5 0 -8 -4 -4 -9z"/>
<path d="M6997 6273 c3 -7 9 -13 15 -13 5 0 7 -3 4 -8 -2 -4 1 -17 7 -28 9
-16 17 -19 32 -13 19 7 19 8 -3 8 -13 1 -20 5 -17 11 4 6 11 8 16 5 5 -4 9 -1
9 4 0 6 -6 11 -14 11 -21 0 -31 21 -15 31 10 6 6 8 -12 7 -17 -1 -25 -7 -22
-15z"/>
<path d="M7056 6272 c5 -4 12 -11 15 -15 3 -5 9 -2 12 5 3 9 -3 14 -15 15 -11
1 -16 -1 -12 -5z"/>
<path d="M7069 6195 c-1 -3 -2 -11 -3 -17 -1 -7 -8 -12 -16 -10 -11 2 -10 -1
2 -11 10 -8 15 -17 11 -20 -3 -4 6 -1 20 6 15 7 21 15 15 18 -6 4 -8 14 -5 23
4 10 1 16 -8 16 -8 0 -16 -2 -16 -5z"/>
<path d="M6785 6280 c3 -5 8 -10 11 -10 2 0 4 5 4 10 0 6 -5 10 -11 10 -5 0
-7 -4 -4 -10z"/>
<path d="M6940 6226 c0 -21 20 -30 33 -17 8 8 8 11 -2 11 -7 0 -9 5 -6 10 3 6
-1 10 -9 10 -9 0 -16 -6 -16 -14z"/>
<path d="M7254 4451 c10 -11 15 -24 12 -30 -4 -5 -2 -12 4 -16 16 -10 11 32
-6 49 -22 23 -30 20 -10 -3z"/>
<path d="M6860 4176 c0 -9 5 -16 10 -16 6 0 10 4 10 9 0 6 -4 13 -10 16 -5 3
-10 -1 -10 -9z"/>
<path d="M7302 4116 c-8 -18 -16 -23 -31 -19 -12 3 -21 1 -21 -6 0 -5 8 -8 18
-5 11 4 8 -1 -8 -14 -14 -12 -22 -23 -19 -27 7 -7 79 70 79 85 0 16 -6 11 -18
-14z"/>
</g>
</svg>
